<svg width="109" height="164" viewBox="0 0 109 164" fill="none" xmlns="http://www.w3.org/2000/svg">
<g clip-path="url(#clip0_21_434)">
<path d="M94.3161 1.27746C93.8318 0.868463 94.1543 0.354866 95.0364 0.130312C95.9186 -0.0942427 97.0264 0.055279 97.5106 0.464277L94.3161 1.27746ZM1.56771 162.682C0.575986 162.603 -0.0893053 162.166 0.0817405 161.707L2.8691 154.214C3.04014 153.754 3.98275 153.445 4.97447 153.525C5.9662 153.604 6.63149 154.041 6.46044 154.5L3.9828 161.161L18.3482 162.31C19.3399 162.389 20.0052 162.826 19.8341 163.286C19.6631 163.745 18.7205 164.054 17.7288 163.975L1.56771 162.682ZM97.5106 0.464277C107.581 8.96857 109.495 19.8145 106.893 30.6896C104.287 41.5795 97.1299 52.5997 88.8138 61.5376C84.6542 66.008 80.1922 69.9705 75.8427 73.1456C71.5173 76.3027 67.2205 78.7414 63.3539 80.1024C61.4277 80.7803 59.4398 81.2513 57.4823 81.3389C55.3949 81.4321 53.5298 81.0793 52.1122 80.3021C50.7743 79.5683 49.8941 78.4941 49.3636 77.1506C48.8275 75.7927 48.6179 74.079 48.7582 71.9899L52.4008 72.0422C52.2651 74.0621 52.4747 75.6468 52.9484 76.8464C53.4277 78.0599 54.1475 78.8013 54.895 79.2109C55.5628 79.577 56.2686 79.6958 57.1322 79.6569C58.1259 79.6124 59.4695 79.3482 61.1503 78.7568C64.4973 77.5786 68.5156 75.3421 72.7664 72.2393C76.9932 69.1544 81.3686 65.2733 85.4675 60.8683C93.6683 52.0544 100.712 41.1974 103.271 30.5033C105.833 19.7943 103.875 9.34982 94.3161 1.27746L97.5106 0.464277ZM48.7582 71.9899C49.3167 63.6783 53.0287 57.1506 58.4317 52.6136C63.8093 48.0977 71.0408 45.4282 78.694 45.1755C86.4379 44.9198 93.781 47.1585 99.2054 51.5972C104.631 56.0374 108.332 62.8002 108.889 71.9925L105.246 72.0396C104.698 63.004 101.062 56.5438 96.0345 52.4303C91.0055 48.3149 84.7788 46.6686 78.9529 46.8609C73.0363 47.0562 66.6981 49.1677 61.6221 53.4302C56.5719 57.6708 52.9467 63.9179 52.4008 72.0422L48.7582 71.9899ZM108.889 71.9925C110.673 101.443 78.682 137.751 2.92816 162.54L0.826676 161.16C75.5966 136.692 106.995 100.918 105.246 72.0396L108.889 71.9925Z" fill="#271CCB"/>
</g>
<defs>
<clipPath id="clip0_21_434">
<rect width="164" height="109" fill="white" transform="matrix(0 1 1 0 0 0)"/>
</clipPath>
</defs>
</svg>
