<svg width="35" height="35" viewBox="0 0 35 35" fill="none" xmlns="http://www.w3.org/2000/svg">
<path d="M17.5001 21.8192L18.7844 20.8381L17.5001 18.9792L16.2156 20.8381L17.5001 21.8192ZM10.0034 32.6683L9.07027 34.0189L10.3547 35L11.2879 33.6496L10.0034 32.6683ZM24.9966 32.6683L23.7122 33.6496L24.6454 35L25.9298 34.0189L24.9966 32.6683ZM28.3665 30.094L29.2997 31.4444L30.5841 30.4633L29.6509 29.1127L28.3665 30.094ZM20.87 19.2449L20.3794 17.6573L18.3013 18.3672L19.5856 20.2261L20.87 19.2449ZM32.9996 15.101L33.4901 16.6885L35 16.1727L34.5095 14.5851L32.9996 15.101ZM31.7124 10.9355L33.2223 10.4197L32.7317 8.83209L31.2218 9.34791L31.7124 10.9355ZM19.5827 15.0794H17.9951V17.377L20.0733 16.6671L19.5827 15.0794ZM19.5827 1.66929H21.1703V0H19.5827V1.66929ZM15.4173 1.66929V0H13.8297V1.66929H15.4173ZM15.4173 15.0795L14.9267 16.6671L17.0049 17.377V15.0795H15.4173ZM3.28768 10.9355L3.77827 9.34791L2.26839 8.83209L1.77778 10.4197L3.28768 10.9355ZM2.00049 15.101L0.490589 14.5851L0 16.1727L1.50988 16.6885L2.00049 15.101ZM14.1301 19.2449L15.4145 20.2261L16.6988 18.3673L14.6207 17.6573L14.1301 19.2449ZM6.63355 30.094L5.34916 29.1127L4.416 30.4633L5.70039 31.4444L6.63355 30.094ZM16.2156 20.8381L8.7191 31.6872L11.2879 33.6496L18.7844 22.8004L16.2156 20.8381ZM26.281 31.6872L18.7844 20.8381L16.2156 22.8004L23.7122 33.6496L26.281 31.6872ZM27.4334 28.7435L24.0634 31.3179L25.9298 34.0189L29.2997 31.4444L27.4334 28.7435ZM19.5856 20.2261L27.0822 31.0752L29.6509 29.1127L22.1544 18.2637L19.5856 20.2261ZM32.509 13.5134L20.3794 17.6573L21.3606 20.8325L33.4901 16.6885L32.509 13.5134ZM30.2025 11.4513L31.4897 15.6168L34.5095 14.5851L33.2223 10.4197L30.2025 11.4513ZM20.0733 16.6671L32.203 12.5231L31.2218 9.34791L19.0922 13.4918L20.0733 16.6671ZM17.9951 1.66929V15.0794H21.1703V1.66929H17.9951ZM15.4173 3.33858H19.5827V0H15.4173V3.33858ZM17.0049 15.0795V1.66929H13.8297V15.0795H17.0049ZM2.79708 12.5231L14.9267 16.6671L15.9079 13.4918L3.77827 9.34791L2.79708 12.5231ZM3.51037 15.6168L4.79757 11.4513L1.77778 10.4197L0.490589 14.5851L3.51037 15.6168ZM14.6207 17.6573L2.49107 13.5134L1.50988 16.6885L13.6395 20.8325L14.6207 17.6573ZM7.91792 31.0752L15.4145 20.2261L12.8457 18.2637L5.34916 29.1127L7.91792 31.0752ZM10.9366 31.3179L7.56672 28.7435L5.70039 31.4444L9.07027 34.0189L10.9366 31.3179Z" fill="#FF847C" fill-opacity="0.7"/>
</svg>
