<svg width="60" height="82" viewBox="0 0 60 82" fill="none" xmlns="http://www.w3.org/2000/svg">
<g clip-path="url(#clip0_0_52)">
<path d="M25.4235 2.38313C24.6544 2.17299 23.8612 2.62268 23.6518 3.38755C23.4424 4.15244 23.8961 4.94285 24.6652 5.15299L25.4235 2.38313ZM2.47197 63.8601C1.96559 64.472 2.0542 65.3774 2.66993 65.8821L12.7018 74.1158C13.3175 74.6211 14.2269 74.5349 14.7332 73.9235C15.2395 73.3121 15.1509 72.4068 14.5352 71.9015L5.61798 64.5826L12.9516 55.7252C13.4579 55.1137 13.3693 54.2084 12.7537 53.7031C12.138 53.1979 11.2286 53.284 10.7222 53.8955L2.47197 63.8601ZM24.6652 5.15299C31.8348 7.11211 40.0662 13.2335 45.2027 21.0348C50.3239 28.8129 52.1791 37.9304 47.2939 46.0851L49.774 47.5602C55.4242 38.1284 53.0937 27.7841 47.6159 19.4644C42.1533 11.1678 33.3722 4.55514 25.4235 2.38313L24.6652 5.15299ZM47.2939 46.0851C42.3237 54.3815 33.0368 58.5995 23.9879 60.7877C14.9429 62.9748 6.55972 63.0507 3.44663 63.3452L3.7265 66.2052C6.53941 65.9385 15.3622 65.8314 24.6755 63.5792C33.9849 61.3278 44.2087 56.8502 49.774 47.5602L47.2939 46.0851Z" fill="#190EC2"/>
</g>
<defs>
<clipPath id="clip0_0_52">
<rect width="44" height="73" fill="white" transform="translate(16.5526 0.336914) rotate(12.6803)"/>
</clipPath>
</defs>
</svg>
