<svg width="25" height="21" viewBox="0 0 25 21" fill="none" xmlns="http://www.w3.org/2000/svg">
<path fill-rule="evenodd" clip-rule="evenodd" d="M0.439945 1.32374C0.0659451 1.81174 2.05594 4.0877 4.87094 6.39033L9.98094 10.5706L4.77095 14.78C0.655945 18.1047 -0.180055 19.197 0.788945 19.9799C1.75795 20.7628 3.12095 20.089 7.27995 16.7716L12.5429 12.5711L17.7529 16.7804C21.8929 20.1261 23.2159 20.7838 24.1999 19.9888C25.1839 19.1938 24.3699 18.1249 20.2289 14.78L15.0189 10.5706L20.2179 6.31843C24.2989 2.97921 25.1549 1.85456 24.1999 1.08298C23.2449 0.311393 21.8499 1.00541 17.7069 4.3107L12.4309 8.52087L7.50294 4.47875C2.32594 0.232215 1.54195 -0.117623 0.439945 1.32374Z" fill="#6C63FF"/>
</svg>
