<svg width="60" height="60" viewBox="0 0 60 60" fill="none" xmlns="http://www.w3.org/2000/svg">
<g clip-path="url(#clip0_72_20)">
<path d="M0 30C0 13.4315 13.4315 0 30 0C46.5685 0 60 13.4315 60 30C60 46.5685 46.5685 60 30 60C13.4315 60 0 46.5685 0 30Z" fill="#6C63FF"/>
<path d="M40.5156 15.283H30.3689L36.8253 23.7932L40.5156 15.283ZM18.9951 15.283L22.6854 23.7932L29.1419 15.283H18.9951ZM29.7554 18.5177L24.8473 24.9865H34.6635L29.7554 18.5177ZM42.5586 16.7279L38.978 24.9865H47.5472L42.5586 16.7279ZM16.9521 16.7279L11.8868 24.9865H20.5328L16.9521 16.7279ZM21.3717 27.4124H11.9635L29.0498 49.2452H29.0905L21.3717 27.4124ZM38.139 27.4124L30.4203 49.2452H30.4609L47.5472 27.4124H38.139ZM35.3836 27.4124H24.1272L29.7554 43.1805L35.3836 27.4124Z" fill="black"/>
</g>
<defs>
<clipPath id="clip0_72_20">
<rect width="60" height="60" fill="white"/>
</clipPath>
</defs>
</svg>
