<svg width="44" height="44" viewBox="0 0 44 44" fill="none" xmlns="http://www.w3.org/2000/svg">
<g clip-path="url(#clip0_21_17)">
<path d="M44 22C44 9.84974 34.1503 0 22 0C9.84974 0 0 9.84974 0 22C0 34.1503 9.84974 44 22 44C34.1503 44 44 34.1503 44 22Z" fill="#6C63FF"/>
<path d="M21.51 16.1628C22.0725 15.6003 22.0725 14.6882 21.51 14.1257C20.9474 13.5632 20.0354 13.5632 19.4729 14.1258C18.9104 14.6883 18.9104 15.6004 19.4729 16.1629C20.0355 16.7254 20.9475 16.7253 21.51 16.1628Z" fill="#6C63FF"/>
<path d="M32.43 26.8115C32.9925 26.2489 32.9925 25.3369 32.4299 24.7744C31.8674 24.2119 30.9553 24.2119 30.3928 24.7744C29.8303 25.337 29.8303 26.249 30.3928 26.8115C30.9554 27.3741 31.8674 27.374 32.43 26.8115Z" fill="#6C63FF"/>
<path d="M15.2551 22.4177C15.8177 21.8551 15.8176 20.9431 15.2551 20.3806C14.6925 19.8181 13.7805 19.8181 13.218 20.3806C12.6555 20.9432 12.6555 21.8552 13.218 22.4177C13.7806 22.9803 14.6926 22.9802 15.2551 22.4177Z" fill="#6C63FF"/>
<path d="M25.9353 33.0979C26.4978 32.5353 26.4978 31.6233 25.9353 31.0608C25.3727 30.4983 24.4607 30.4983 23.8982 31.0608C23.3357 31.6234 23.3357 32.5354 23.8982 33.0979C24.4608 33.6604 25.3728 33.6604 25.9353 33.0979Z" fill="#6C63FF"/>
<path d="M32.4899 25.627L31.7686 26.3596L19.9571 14.3733L20.6783 13.6414L32.4899 25.627ZM25.3119 32.6207L24.5907 33.3527L12.7786 21.3676L13.4998 20.635L25.3119 32.6207Z" fill="#6C63FF"/>
<path d="M20.6629 13.2622L21.3912 14.0043L13.5068 22.0373L12.7786 21.2952L20.6629 13.2622ZM32.1406 24.9559L32.8689 25.698L24.9845 33.7316L24.2563 32.9896L32.1406 24.9559Z" fill="#6C63FF"/>
<path d="M26.823 27.4429C28.2105 26.0554 27.518 23.1135 25.2763 20.8719C23.0346 18.6303 20.0926 17.9379 18.7052 19.3254C17.3177 20.7129 18.0102 23.6548 20.252 25.8964C22.4936 28.138 25.4356 28.8304 26.823 27.4429Z" fill="#6C63FF"/>
<path d="M9.85419 35.5553L9.84863 35.5492M7.83957 35.332C8.06476 35.5572 8.36736 35.6531 8.65876 35.6209C8.65876 35.6209 14.1668 35.6531 17.2977 32.6497C17.3373 32.6151 17.3744 32.578 17.4115 32.5409C17.6812 32.2712 17.8951 31.951 18.0411 31.5986C18.187 31.2463 18.2621 30.8686 18.2621 30.4873C18.2621 30.1059 18.187 29.7282 18.0411 29.3758C17.8951 29.0235 17.6812 28.7033 17.4115 28.4336C17.1418 28.1639 16.8217 27.95 16.4693 27.8041C16.117 27.6581 15.7393 27.583 15.3579 27.583C14.9765 27.583 14.5988 27.6581 14.2465 27.8041C13.8941 27.95 13.574 28.1639 13.3043 28.4336L7.83895 33.899C7.64896 34.089 7.54224 34.3468 7.54224 34.6155C7.54224 34.8842 7.64896 35.142 7.83895 35.332H7.83957Z" stroke="black" stroke-width="4" stroke-miterlimit="10" stroke-linecap="round"/>
<path d="M12.8922 33.0068C12.9664 33.508 12.6694 34.2319 12.0816 34.8507C11.9022 35.0363 11.7165 35.1972 11.5247 35.3209M10.3058 34.6403C10.2563 34.9992 10.0831 35.3271 9.81079 35.5623" stroke="black" stroke-width="4" stroke-miterlimit="10" stroke-linecap="round"/>
<path d="M24.5919 33.216L13.0752 21.6994C12.9592 21.5834 12.894 21.426 12.894 21.2619C12.894 21.0979 12.9592 20.9405 13.0752 20.8245L20.0318 13.8679C20.1478 13.7519 20.3051 13.6868 20.4692 13.6868C20.6333 13.6868 20.7906 13.7519 20.9067 13.8679L32.4233 25.3846C32.5393 25.5006 32.6045 25.658 32.6045 25.8221C32.6045 25.9861 32.5393 26.1435 32.4233 26.2595L25.4668 33.216C25.3507 33.332 25.1934 33.3972 25.0293 33.3972C24.8653 33.3972 24.7079 33.332 24.5919 33.216Z" stroke="black" stroke-width="4" stroke-miterlimit="10" stroke-linecap="round" stroke-linejoin="round"/>
<path d="M28.5333 21.9759L21.2736 29.2356C21.2483 29.2604 21.2193 29.2811 21.1876 29.2969C21.1211 29.3275 21.0468 29.3367 20.9747 29.3234C20.9028 29.3101 20.8366 29.2749 20.7854 29.2226L16.935 25.3716C16.8826 25.3204 16.8473 25.2543 16.834 25.1822C16.8207 25.1102 16.8301 25.0359 16.8607 24.9694C16.8763 24.9377 16.8968 24.9087 16.9214 24.8834L24.1811 17.6236C24.2066 17.599 24.2358 17.5785 24.2677 17.563C24.3342 17.5324 24.4086 17.5231 24.4805 17.5364C24.5526 17.5497 24.6187 17.5849 24.6699 17.6372L28.5197 21.4877C28.5721 21.5389 28.6074 21.605 28.6207 21.677C28.634 21.749 28.6246 21.8234 28.594 21.8899C28.5784 21.9218 28.558 21.951 28.5333 21.9765V21.9759Z" stroke="black" stroke-width="4" stroke-miterlimit="10" stroke-linecap="round" stroke-linejoin="round"/>
<path d="M34.7964 10.614L34.7902 10.6078M34.573 8.59809C34.7982 8.82394 34.8942 9.1265 34.8619 9.4179C34.8619 9.4179 34.8935 14.926 31.8901 18.0568C31.8561 18.0964 31.819 18.1336 31.7819 18.1707C31.2373 18.7153 30.4987 19.0213 29.7285 19.0214C28.9583 19.0214 28.2196 18.7156 27.675 18.171C27.1303 17.6264 26.8243 16.8878 26.8242 16.1176C26.8242 15.3474 27.1301 14.6087 27.6746 14.0641L33.14 8.59871C33.33 8.40872 33.5878 8.302 33.8565 8.302C34.1252 8.302 34.383 8.40872 34.573 8.59871V8.59809Z" stroke="black" stroke-width="4" stroke-miterlimit="10" stroke-linecap="round"/>
<path d="M32.2471 13.6519C32.7483 13.7261 33.4722 13.4291 34.091 12.8414C34.2765 12.6619 34.4374 12.4763 34.5612 12.2845M33.8806 11.0656C34.2394 11.0161 34.5674 10.8428 34.8025 10.5706" stroke="black" stroke-width="4" stroke-miterlimit="10" stroke-linecap="round"/>
</g>
<defs>
<clipPath id="clip0_21_17">
<rect width="44" height="44" fill="white"/>
</clipPath>
</defs>
</svg>
