<svg width="60" height="60" viewBox="0 0 60 60" fill="none" xmlns="http://www.w3.org/2000/svg">
<g clip-path="url(#clip0_72_5)">
<path d="M60 30C60 13.4315 46.5685 0 30 0C13.4315 0 0 13.4315 0 30C0 46.5685 13.4315 60 30 60C46.5685 60 60 46.5685 60 30Z" fill="#E85D56"/>
<path d="M29.3319 22.0401C30.099 21.273 30.099 20.0293 29.3319 19.2623C28.5648 18.4952 27.3211 18.4953 26.554 19.2624C25.787 20.0295 25.787 21.2732 26.5541 22.0402C27.3212 22.8073 28.5649 22.8072 29.3319 22.0401Z" fill="#E85D56"/>
<path d="M44.2226 36.5611C44.9896 35.794 44.9896 34.5504 44.2225 33.7833C43.4554 33.0162 42.2117 33.0162 41.4447 33.7833C40.6776 34.5504 40.6776 35.7941 41.4447 36.5612C42.2118 37.3283 43.4555 37.3282 44.2226 36.5611Z" fill="#E85D56"/>
<path d="M20.8026 30.5697C21.5697 29.8026 21.5697 28.5589 20.8026 27.7918C20.0355 27.0248 18.7918 27.0248 18.0247 27.7919C17.2577 28.559 17.2577 29.8027 18.0248 30.5697C18.7919 31.3368 20.0356 31.3367 20.8026 30.5697Z" fill="#E85D56"/>
<path d="M35.3664 45.1334C36.1334 44.3663 36.1334 43.1226 35.3663 42.3556C34.5992 41.5885 33.3555 41.5885 32.5885 42.3556C31.8214 43.1227 31.8214 44.3664 32.5885 45.1335C33.3556 45.9005 34.5993 45.9005 35.3664 45.1334Z" fill="#E85D56"/>
<path d="M44.3045 34.9459L43.321 35.9449L27.2144 19.5999L28.1978 18.6018L44.3045 34.9459ZM34.5163 44.4828L33.5328 45.4808L17.4254 29.1376L18.4089 28.1386L34.5163 44.4828Z" fill="#E85D56"/>
<path d="M28.1768 18.085L29.17 19.0969L18.4185 30.051L17.4254 29.039L28.1768 18.085ZM43.8282 34.0309L44.8214 35.0428L34.0699 45.9978L33.0768 44.9859L43.8282 34.0309Z" fill="#E85D56"/>
<path d="M36.577 37.4222C38.469 35.5301 37.5247 31.5184 34.4679 28.4617C31.411 25.4049 27.3992 24.4608 25.5073 26.3528C23.6153 28.2448 24.5596 32.2566 27.6165 35.3133C30.6733 38.3701 34.6851 39.3142 36.577 37.4222Z" fill="#E85D56"/>
<path d="M13.4375 48.4847L13.4299 48.4762M10.6902 48.1801C10.9973 48.4872 11.41 48.618 11.8073 48.5741C11.8073 48.5741 19.3183 48.618 23.5876 44.5225C23.6416 44.4752 23.6923 44.4246 23.7429 44.374C24.1107 44.0062 24.4023 43.5696 24.6014 43.0891C24.8004 42.6087 24.9028 42.0937 24.9028 41.5736C24.9028 41.0535 24.8004 40.5385 24.6014 40.0581C24.4024 39.5775 24.1107 39.141 23.7429 38.7732C23.3751 38.4054 22.9386 38.1138 22.4581 37.9147C21.9776 37.7157 21.4626 37.6133 20.9425 37.6133C20.4225 37.6133 19.9074 37.7157 19.427 37.9147C18.9465 38.1138 18.5099 38.4054 18.1421 38.7732L10.6894 46.226C10.4303 46.4851 10.2848 46.8366 10.2848 47.203C10.2848 47.5695 10.4303 47.9209 10.6894 48.1801H10.6902Z" stroke="black" stroke-width="4" stroke-miterlimit="10" stroke-linecap="round"/>
<path d="M17.5803 45.0093C17.6815 45.6927 17.2765 46.6799 16.475 47.5237C16.2303 47.7767 15.9772 47.9961 15.7156 48.1649M14.0534 47.2368C13.9859 47.7261 13.7497 48.1733 13.3784 48.494" stroke="black" stroke-width="4" stroke-miterlimit="10" stroke-linecap="round"/>
<path d="M33.5345 45.2944L17.8299 29.5899C17.6718 29.4316 17.5829 29.2171 17.5829 28.9933C17.5829 28.7696 17.6718 28.555 17.8299 28.3968L27.3161 18.9106C27.4743 18.7524 27.6889 18.6636 27.9126 18.6636C28.1364 18.6636 28.3509 18.7524 28.5092 18.9106L44.2137 34.6152C44.3719 34.7734 44.4607 34.988 44.4607 35.2117C44.4607 35.4354 44.3719 35.65 44.2137 35.8082L34.7275 45.2944C34.5693 45.4526 34.3548 45.5414 34.131 45.5414C33.9073 45.5414 33.6927 45.4526 33.5345 45.2944Z" stroke="black" stroke-width="4" stroke-miterlimit="10" stroke-linecap="round" stroke-linejoin="round"/>
<path d="M38.9091 29.9669L29.0095 39.8665C28.9751 39.9003 28.9355 39.9285 28.8922 39.95C28.8016 39.9918 28.7002 40.0044 28.602 39.9863C28.5038 39.9682 28.4137 39.9201 28.3438 39.8488L23.0932 34.5974C23.0218 34.5276 22.9737 34.4374 22.9555 34.3392C22.9374 34.241 22.9502 34.1396 22.992 34.0489C23.0133 34.0057 23.0412 33.9662 23.0747 33.9317L32.9743 24.032C33.009 23.9984 33.0489 23.9705 33.0924 23.9493C33.1831 23.9076 33.2845 23.895 33.3826 23.9131C33.4808 23.9312 33.571 23.9792 33.6409 24.0506L38.8906 29.3012C38.9621 29.371 39.0101 29.4611 39.0282 29.5593C39.0464 29.6575 39.0337 29.7589 38.9918 29.8496C38.9707 29.8931 38.9428 29.9329 38.9091 29.9677V29.9669Z" stroke="black" stroke-width="4" stroke-miterlimit="10" stroke-linecap="round" stroke-linejoin="round"/>
<path d="M47.4495 14.4735L47.441 14.465M47.1449 11.7246C47.452 12.0325 47.5828 12.4451 47.5389 12.8425C47.5389 12.8425 47.582 20.3535 43.4864 24.6228C43.44 24.6768 43.3894 24.7275 43.3388 24.7781C42.5962 25.5208 41.589 25.938 40.5387 25.9382C39.4884 25.9382 38.4812 25.5211 37.7385 24.7785C36.9958 24.0359 36.5784 23.0287 36.5784 21.9784C36.5783 20.9282 36.9954 19.9208 37.738 19.1781L45.1908 11.7254C45.4499 11.4663 45.8014 11.3208 46.1678 11.3208C46.5343 11.3208 46.8857 11.4663 47.1449 11.7254V11.7246Z" stroke="black" stroke-width="4" stroke-miterlimit="10" stroke-linecap="round"/>
<path d="M43.9731 18.6162C44.6566 18.7174 45.6437 18.3124 46.4875 17.5109C46.7406 17.2662 46.96 17.013 47.1288 16.7515M46.2006 15.0893C46.69 15.0218 47.1372 14.7856 47.4578 14.4143" stroke="black" stroke-width="4" stroke-miterlimit="10" stroke-linecap="round"/>
</g>
<defs>
<clipPath id="clip0_72_5">
<rect width="60" height="60" fill="white"/>
</clipPath>
</defs>
</svg>
