<svg width="118" height="52" viewBox="0 0 118 52" fill="none" xmlns="http://www.w3.org/2000/svg">
<rect width="118" height="52" rx="26" fill="#E2E0FF"/>
<path fill-rule="evenodd" clip-rule="evenodd" d="M33.4 26.5C33.4 33.0235 28.3852 38.3125 22.2 38.3125C16.0148 38.3125 11 33.0235 11 26.5C11 19.9765 16.0148 14.6875 22.2 14.6875C28.3852 14.6875 33.4 19.9765 33.4 26.5ZM22.6014 23.4081C21.5122 23.8855 19.3346 24.8748 16.0699 26.375C15.5397 26.5975 15.2616 26.815 15.2364 27.0276C15.1935 27.3879 15.6209 27.5296 16.2015 27.7216C16.2808 27.7482 16.3629 27.7747 16.4469 27.8043C17.0191 28.0002 17.7881 28.2295 18.1876 28.2384C18.5507 28.2463 18.9557 28.0888 19.4028 27.7659C22.453 25.5934 24.0274 24.4958 24.1264 24.4722C24.1964 24.4554 24.2934 24.4338 24.3588 24.4958C24.4242 24.5568 24.4176 24.673 24.411 24.7045C24.3682 24.8945 22.6938 26.5374 21.8258 27.3879C21.555 27.6527 21.3638 27.8407 21.3246 27.884C21.2368 27.9795 21.1472 28.0711 21.0614 28.1586C20.5294 28.6981 20.1318 29.1036 21.0838 29.7651C21.541 30.0832 21.907 30.346 22.2718 30.6078C22.6704 30.8942 23.068 31.1797 23.5832 31.5361C23.7138 31.6266 23.839 31.7201 23.9612 31.8117C24.425 32.1611 24.8422 32.4742 25.3574 32.425C25.6562 32.3955 25.966 32.0991 26.1228 31.2142C26.4934 29.1214 27.2232 24.5893 27.3922 22.721C27.4024 22.5658 27.3962 22.41 27.3734 22.2564C27.3599 22.1322 27.3026 22.0181 27.213 21.9364C27.0794 21.8212 26.8722 21.7967 26.779 21.7986C26.358 21.8065 25.7122 22.0437 22.6014 23.4081Z" fill="black"/>
<path d="M37.96 22.2813V16.2063H38.672V18.8852H41.704V16.2063H42.416V22.2813H41.704V19.5982H38.672V22.2813H37.96ZM44.7661 22.4079C44.4434 22.4079 44.1728 22.346 43.9541 22.2222C43.7381 22.0957 43.5741 21.9297 43.4621 21.7244C43.3528 21.5191 43.2981 21.2941 43.2981 21.0494C43.2981 20.8104 43.3408 20.6036 43.4261 20.4293C43.5141 20.2521 43.6368 20.1058 43.7941 19.9905C43.9514 19.8724 44.1394 19.7796 44.3581 19.7121C44.5634 19.653 44.7928 19.6024 45.0461 19.5602C45.3021 19.5152 45.5608 19.4744 45.8221 19.4379C46.0834 19.4013 46.3274 19.3661 46.5541 19.3324L46.2981 19.4885C46.3061 19.0835 46.2288 18.784 46.0661 18.5899C45.9061 18.3958 45.6288 18.2988 45.2341 18.2988C44.9728 18.2988 44.7434 18.3621 44.5461 18.4886C44.3514 18.6124 44.2141 18.8149 44.1341 19.0961L43.4581 18.881C43.5621 18.4816 43.7634 18.168 44.0621 17.9402C44.3608 17.7124 44.7541 17.5985 45.2421 17.5985C45.6341 17.5985 45.9701 17.673 46.2501 17.8221C46.5328 17.9683 46.7354 18.1905 46.8581 18.4886C46.9194 18.6293 46.9581 18.7825 46.9741 18.9485C46.9901 19.1116 46.9981 19.2832 46.9981 19.4632V22.2813H46.3661V21.1886L46.5141 21.2899C46.3514 21.6584 46.1234 21.9368 45.8301 22.1252C45.5394 22.3136 45.1848 22.4079 44.7661 22.4079ZM44.8741 21.7793C45.1301 21.7793 45.3514 21.7314 45.5381 21.6358C45.7274 21.5374 45.8794 21.4094 45.9941 21.2519C46.1088 21.0916 46.1834 20.9172 46.2181 20.7288C46.2581 20.5882 46.2794 20.4321 46.2821 20.2605C46.2874 20.0861 46.2901 19.9525 46.2901 19.8597L46.5381 19.9736C46.3061 20.0074 46.0781 20.0397 45.8541 20.0707C45.6301 20.1016 45.4181 20.1354 45.2181 20.1719C45.0181 20.2057 44.8381 20.2465 44.6781 20.2943C44.5608 20.3336 44.4501 20.3843 44.3461 20.4461C44.2448 20.508 44.1621 20.5882 44.0981 20.6866C44.0368 20.7822 44.0061 20.9018 44.0061 21.0452C44.0061 21.169 44.0354 21.2871 44.0941 21.3996C44.1554 21.5121 44.2488 21.6035 44.3741 21.6738C44.5021 21.7441 44.6688 21.7793 44.8741 21.7793ZM48.0341 22.2813V17.725H51.5741V22.2813H50.8621V18.438H48.7461V22.2813H48.0341ZM56.2304 17.725V22.2813H55.5424V18.9232L53.2784 22.2813H52.6904V17.725H53.3784V21.0368L55.6464 17.725H56.2304ZM59.1706 22.4079C58.7332 22.4079 58.3612 22.3052 58.0546 22.0999C57.7506 21.8917 57.5186 21.6063 57.3586 21.2435C57.1986 20.8807 57.1159 20.4672 57.1106 20.0032C57.1159 19.5279 57.1999 19.1102 57.3626 18.7502C57.5279 18.3874 57.7639 18.1047 58.0706 17.9022C58.3772 17.6997 58.7466 17.5985 59.1786 17.5985C59.6346 17.5985 60.0266 17.7166 60.3546 17.9529C60.6852 18.1891 60.9066 18.5125 61.0186 18.9232L60.3146 19.1468C60.2239 18.8824 60.0759 18.6771 59.8706 18.5308C59.6679 18.3846 59.4346 18.3115 59.1706 18.3115C58.8746 18.3115 58.6306 18.3846 58.4386 18.5308C58.2466 18.6743 58.1039 18.874 58.0106 19.1299C57.9172 19.383 57.8692 19.6741 57.8666 20.0032C57.8719 20.5094 57.9826 20.9186 58.1986 21.2308C58.4172 21.5402 58.7412 21.6949 59.1706 21.6949C59.4532 21.6949 59.6879 21.6274 59.8746 21.4924C60.0612 21.3546 60.2026 21.1563 60.2986 20.8975L61.0186 21.0958C60.8692 21.5205 60.6359 21.8453 60.3186 22.0704C60.0012 22.2954 59.6186 22.4079 59.1706 22.4079ZM63.0239 22.4079C62.7012 22.4079 62.4306 22.346 62.2119 22.2222C61.9959 22.0957 61.8319 21.9297 61.7199 21.7244C61.6106 21.5191 61.5559 21.2941 61.5559 21.0494C61.5559 20.8104 61.5986 20.6036 61.6839 20.4293C61.7719 20.2521 61.8946 20.1058 62.0519 19.9905C62.2092 19.8724 62.3972 19.7796 62.6159 19.7121C62.8212 19.653 63.0506 19.6024 63.3039 19.5602C63.5599 19.5152 63.8186 19.4744 64.0799 19.4379C64.3412 19.4013 64.5852 19.3661 64.8119 19.3324L64.5559 19.4885C64.5639 19.0835 64.4866 18.784 64.3239 18.5899C64.1639 18.3958 63.8866 18.2988 63.4919 18.2988C63.2306 18.2988 63.0012 18.3621 62.8039 18.4886C62.6092 18.6124 62.4719 18.8149 62.3919 19.0961L61.7159 18.881C61.8199 18.4816 62.0212 18.168 62.3199 17.9402C62.6186 17.7124 63.0119 17.5985 63.4999 17.5985C63.8919 17.5985 64.2279 17.673 64.5079 17.8221C64.7906 17.9683 64.9932 18.1905 65.1159 18.4886C65.1772 18.6293 65.2159 18.7825 65.2319 18.9485C65.2479 19.1116 65.2559 19.2832 65.2559 19.4632V22.2813H64.6239V21.1886L64.7719 21.2899C64.6092 21.6584 64.3812 21.9368 64.0879 22.1252C63.7972 22.3136 63.4426 22.4079 63.0239 22.4079ZM63.1319 21.7793C63.3879 21.7793 63.6092 21.7314 63.7959 21.6358C63.9852 21.5374 64.1372 21.4094 64.2519 21.2519C64.3666 21.0916 64.4412 20.9172 64.4759 20.7288C64.5159 20.5882 64.5372 20.4321 64.5399 20.2605C64.5452 20.0861 64.5479 19.9525 64.5479 19.8597L64.7959 19.9736C64.5639 20.0074 64.3359 20.0397 64.1119 20.0707C63.8879 20.1016 63.6759 20.1354 63.4759 20.1719C63.2759 20.2057 63.0959 20.2465 62.9359 20.2943C62.8186 20.3336 62.7079 20.3843 62.6039 20.4461C62.5026 20.508 62.4199 20.5882 62.3559 20.6866C62.2946 20.7822 62.2639 20.9018 62.2639 21.0452C62.2639 21.169 62.2932 21.2871 62.3519 21.3996C62.4132 21.5121 62.5066 21.6035 62.6319 21.6738C62.7599 21.7441 62.9266 21.7793 63.1319 21.7793ZM67.4399 22.2813V18.4085H65.9359V17.725H69.6559V18.4085H68.1519V22.2813H67.4399ZM70.4131 22.2813L70.4091 17.725H71.1251V19.3746H72.0571C72.1824 19.3746 72.3104 19.3774 72.4411 19.383C72.5717 19.3886 72.6851 19.4013 72.7811 19.421C73.0051 19.466 73.2011 19.5447 73.3691 19.6572C73.5371 19.7697 73.6677 19.923 73.7611 20.1171C73.8544 20.3083 73.9011 20.546 73.9011 20.83C73.9011 21.2238 73.8037 21.536 73.6091 21.7666C73.4171 21.9944 73.1651 22.1463 72.8531 22.2222C72.7464 22.2475 72.6237 22.2644 72.4851 22.2729C72.3491 22.2785 72.2197 22.2813 72.0971 22.2813H70.4131ZM71.1251 21.6611H72.1091C72.1891 21.6611 72.2784 21.6584 72.3771 21.6527C72.4757 21.6471 72.5637 21.633 72.6411 21.6105C72.7771 21.5683 72.8984 21.4854 73.0051 21.3616C73.1144 21.2379 73.1691 21.0607 73.1691 20.83C73.1691 20.5966 73.1157 20.4166 73.0091 20.29C72.9051 20.1635 72.7677 20.0805 72.5971 20.0411C72.5197 20.0215 72.4384 20.0088 72.3531 20.0032C72.2677 19.9975 72.1864 19.9947 72.1091 19.9947H71.1251V21.6611ZM76.3778 22.2813V17.725H78.2178C78.3272 17.725 78.4445 17.7321 78.5698 17.7461C78.6978 17.7574 78.8138 17.7785 78.9178 17.8094C79.1498 17.8741 79.3405 18.0077 79.4898 18.2102C79.6418 18.4099 79.7178 18.663 79.7178 18.9696C79.7178 19.1411 79.6925 19.2902 79.6418 19.4168C79.5938 19.5433 79.5245 19.653 79.4338 19.7458C79.3938 19.788 79.3498 19.826 79.3018 19.8597C79.2538 19.8935 79.2058 19.9202 79.1578 19.9399C79.2512 19.9568 79.3458 19.9947 79.4418 20.0538C79.5938 20.141 79.7125 20.2633 79.7978 20.4208C79.8858 20.5783 79.9298 20.7794 79.9298 21.0241C79.9298 21.3335 79.8592 21.5894 79.7178 21.7919C79.5765 21.9916 79.3818 22.1294 79.1338 22.2054C79.0298 22.2363 78.9152 22.2574 78.7898 22.2686C78.6645 22.2771 78.5432 22.2813 78.4258 22.2813H76.3778ZM77.0978 21.6696H78.3858C78.4418 21.6696 78.5085 21.6639 78.5858 21.6527C78.6658 21.6415 78.7365 21.6274 78.7978 21.6105C78.9365 21.5683 79.0365 21.4896 79.0978 21.3743C79.1618 21.259 79.1938 21.1338 79.1938 20.9988C79.1938 20.8188 79.1458 20.6725 79.0498 20.56C78.9565 20.4476 78.8325 20.3772 78.6778 20.3491C78.6218 20.3322 78.5605 20.3224 78.4938 20.3196C78.4298 20.3168 78.3725 20.3154 78.3218 20.3154H77.0978V21.6696ZM77.0978 19.6952H78.1698C78.2445 19.6952 78.3232 19.691 78.4058 19.6825C78.4885 19.6713 78.5605 19.653 78.6218 19.6277C78.7445 19.5799 78.8338 19.5011 78.8898 19.3915C78.9485 19.279 78.9778 19.1566 78.9778 19.0244C78.9778 18.8782 78.9458 18.7502 78.8818 18.6405C78.8205 18.528 78.7258 18.4507 78.5978 18.4085C78.5125 18.3747 78.4165 18.3565 78.3098 18.3536C78.2058 18.348 78.1392 18.3452 78.1098 18.3452H77.0978V19.6952Z" fill="black"/>
<path d="M42.7719 25.8276V36.625H40.8454V25.8276H42.7719ZM45.9501 25.8276V27.4369H37.7024V25.8276H45.9501ZM49.8524 36.7733C49.2758 36.7733 48.7579 36.6744 48.2985 36.4767C47.8391 36.2789 47.4478 36.0045 47.1243 35.6535C46.8055 35.2976 46.5594 34.8848 46.386 34.4151C46.2173 33.9405 46.1329 33.4312 46.1329 32.8874V32.5909C46.1329 31.9728 46.2173 31.4117 46.386 30.9074C46.5548 30.3982 46.7938 29.9607 47.1032 29.5949C47.4126 29.229 47.7829 28.9472 48.2142 28.7494C48.6454 28.5517 49.1212 28.4529 49.6415 28.4529C50.1806 28.4529 50.6563 28.5492 51.0688 28.742C51.4814 28.9299 51.8258 29.1969 52.1024 29.5429C52.379 29.889 52.5876 30.3043 52.7282 30.7888C52.8688 31.2684 52.9391 31.7998 52.9391 32.3832V33.2063H46.9766V31.8566H51.111V31.7084C51.1017 31.3969 51.0454 31.1126 50.9422 30.8555C50.8391 30.5935 50.6798 30.3859 50.4642 30.2326C50.2485 30.0744 49.9696 29.9953 49.6274 29.9953C49.3509 29.9953 49.1094 30.0596 48.9032 30.1881C48.7017 30.3117 48.5329 30.4897 48.397 30.722C48.2657 30.9494 48.1673 31.2214 48.1017 31.5378C48.036 31.8542 48.0032 32.2052 48.0032 32.5909V32.8874C48.0032 33.2237 48.0454 33.5351 48.1298 33.8218C48.2188 34.1086 48.3478 34.3583 48.5165 34.5708C48.6899 34.7785 48.8962 34.9416 49.1352 35.0603C49.379 35.174 49.6555 35.2309 49.965 35.2309C50.354 35.2309 50.7055 35.1517 51.0196 34.9935C51.3384 34.8303 51.615 34.5906 51.8493 34.2742L52.7845 35.2976C52.625 35.5447 52.4094 35.7821 52.1376 36.0095C51.8704 36.2369 51.547 36.4223 51.1673 36.5657C50.7876 36.7041 50.3493 36.7733 49.8524 36.7733ZM56.1524 25.2344V36.625H54.2891V25.2344H56.1524ZM61.3415 36.7733C60.765 36.7733 60.247 36.6744 59.7876 36.4767C59.3282 36.2789 58.9368 36.0045 58.6134 35.6535C58.2946 35.2976 58.0485 34.8848 57.8751 34.4151C57.7063 33.9405 57.6219 33.4312 57.6219 32.8874V32.5909C57.6219 31.9728 57.7063 31.4117 57.8751 30.9074C58.0438 30.3982 58.2829 29.9607 58.5922 29.5949C58.9017 29.229 59.2719 28.9472 59.7032 28.7494C60.1345 28.5517 60.6102 28.4529 61.1306 28.4529C61.6696 28.4529 62.1454 28.5492 62.5579 28.742C62.9704 28.9299 63.315 29.1969 63.5915 29.5429C63.8681 29.889 64.0766 30.3043 64.2173 30.7888C64.3579 31.2684 64.4282 31.7998 64.4282 32.3832V33.2063H58.4657V31.8566H62.6001V31.7084C62.5907 31.3969 62.5345 31.1126 62.4314 30.8555C62.3282 30.5935 62.1688 30.3859 61.9532 30.2326C61.7376 30.0744 61.4586 29.9953 61.1165 29.9953C60.8399 29.9953 60.5985 30.0596 60.3922 30.1881C60.1907 30.3117 60.0219 30.4897 59.886 30.722C59.7548 30.9494 59.6563 31.2214 59.5907 31.5378C59.525 31.8542 59.4922 32.2052 59.4922 32.5909V32.8874C59.4922 33.2237 59.5345 33.5351 59.6188 33.8218C59.7079 34.1086 59.8368 34.3583 60.0055 34.5708C60.179 34.7785 60.3852 34.9416 60.6243 35.0603C60.8681 35.174 61.1446 35.2309 61.454 35.2309C61.843 35.2309 62.1946 35.1517 62.5086 34.9935C62.8274 34.8303 63.104 34.5906 63.3384 34.2742L64.2735 35.2976C64.1141 35.5447 63.8985 35.7821 63.6266 36.0095C63.3594 36.2369 63.036 36.4223 62.6563 36.5657C62.2766 36.7041 61.8384 36.7733 61.3415 36.7733ZM70.5102 28.6011H72.1978V36.3803C72.1978 37.107 72.0478 37.7225 71.7478 38.2268C71.4524 38.7361 71.0376 39.1217 70.5032 39.3836C69.9688 39.6506 69.3477 39.7841 68.6399 39.7841C68.3352 39.7841 68.0048 39.7396 67.6485 39.6506C67.297 39.5617 66.9571 39.4208 66.629 39.228C66.3055 39.0401 66.036 38.7954 65.8204 38.4937L66.6571 37.337C66.9102 37.6484 67.1962 37.8832 67.515 38.0414C67.8337 38.2046 68.1782 38.2862 68.5485 38.2862C68.9235 38.2862 69.2422 38.212 69.5048 38.0637C69.7719 37.9203 69.9758 37.7077 70.1165 37.4259C70.2618 37.1491 70.3345 36.8079 70.3345 36.4025V30.4328L70.5102 28.6011ZM65.3704 32.7095V32.5537C65.3704 31.9407 65.4407 31.3846 65.5814 30.8852C65.7219 30.3809 65.9235 29.9483 66.186 29.5875C66.4532 29.2265 66.7743 28.9472 67.1493 28.7494C67.529 28.5517 67.9555 28.4529 68.429 28.4529C68.9306 28.4529 69.3524 28.5492 69.6946 28.742C70.0415 28.9348 70.3274 29.2092 70.5524 29.5652C70.7821 29.9212 70.9602 30.3439 71.0868 30.8332C71.2181 31.3178 71.3188 31.8517 71.3891 32.4351V32.8578C71.3235 33.4263 71.2181 33.9479 71.0727 34.4225C70.9321 34.8971 70.7446 35.3124 70.5102 35.6684C70.2758 36.0194 69.9852 36.2913 69.6384 36.4841C69.2915 36.6769 68.8837 36.7733 68.415 36.7733C67.9462 36.7733 67.5243 36.672 67.1493 36.4692C66.7743 36.2666 66.4532 35.9823 66.186 35.6165C65.9235 35.2506 65.7219 34.8205 65.5814 34.3261C65.4407 33.8318 65.3704 33.2929 65.3704 32.7095ZM67.2266 32.5537V32.7095C67.2266 33.0555 67.2594 33.3793 67.325 33.6809C67.3907 33.9825 67.4915 34.2495 67.6274 34.4819C67.7634 34.7093 67.9345 34.8872 68.1407 35.0158C68.3469 35.1443 68.593 35.2086 68.879 35.2086C69.2634 35.2086 69.5774 35.1246 69.8212 34.9565C70.0696 34.7834 70.2571 34.5486 70.3837 34.252C70.5149 33.9504 70.5993 33.6117 70.6368 33.236V32.0717C70.6133 31.7751 70.5618 31.5007 70.4821 31.2485C70.4071 30.9964 70.3017 30.7789 70.1657 30.596C70.0298 30.4131 69.8563 30.2697 69.6454 30.1658C69.4345 30.0621 69.1837 30.0102 68.893 30.0102C68.6118 30.0102 68.3657 30.0769 68.1548 30.2104C67.9438 30.3389 67.7704 30.5194 67.6345 30.7517C67.4985 30.9841 67.3953 31.2535 67.325 31.5601C67.2594 31.8666 67.2266 32.1978 67.2266 32.5537ZM75.7274 30.24V36.625H73.8712V28.6011H75.629L75.7274 30.24ZM78.0407 28.5492L78.0126 30.3735C77.9094 30.3537 77.7922 30.3389 77.661 30.329C77.5345 30.3191 77.415 30.3142 77.3024 30.3142C77.0165 30.3142 76.7657 30.3562 76.5501 30.4402C76.3345 30.5194 76.154 30.6356 76.0086 30.7888C75.8681 30.942 75.7602 31.1299 75.6852 31.3524C75.6102 31.5699 75.5681 31.8171 75.5586 32.094L75.1579 32.0421C75.1579 31.5328 75.2071 31.0607 75.3055 30.6256C75.404 30.1906 75.547 29.8099 75.7345 29.4836C75.9219 29.1573 76.1563 28.9052 76.4376 28.7272C76.7235 28.5443 77.0517 28.4529 77.4219 28.4529C77.525 28.4529 77.6352 28.4627 77.7524 28.4825C77.8743 28.4973 77.9704 28.5196 78.0407 28.5492ZM83.0118 34.9194V31.2189C83.0118 30.947 82.9673 30.7122 82.8782 30.5144C82.7891 30.3166 82.6532 30.1634 82.4704 30.0546C82.2876 29.9459 82.0555 29.8915 81.7743 29.8915C81.5258 29.8915 81.3079 29.936 81.1204 30.0249C80.9376 30.114 80.797 30.24 80.6985 30.4032C80.6001 30.5614 80.5509 30.7443 80.5509 30.952H78.6876C78.6876 30.6207 78.7626 30.3067 78.9126 30.0102C79.0626 29.7085 79.2758 29.4416 79.5524 29.2092C79.8337 28.9719 80.1688 28.7866 80.5579 28.6531C80.9517 28.5196 81.3922 28.4529 81.8798 28.4529C82.4563 28.4529 82.9696 28.5566 83.4196 28.7643C83.8743 28.967 84.2305 29.2735 84.4884 29.6838C84.7509 30.0942 84.8821 30.6108 84.8821 31.2338V34.734C84.8821 35.1344 84.9055 35.478 84.9524 35.7648C85.004 36.0466 85.079 36.2913 85.1774 36.4989V36.625H83.286C83.1969 36.4223 83.129 36.1652 83.0821 35.8537C83.0352 35.5373 83.0118 35.2259 83.0118 34.9194ZM83.2719 31.738L83.286 32.9023H82.1118C81.8212 32.9023 81.5657 32.9344 81.3454 32.9986C81.125 33.058 80.9446 33.147 80.804 33.2657C80.6633 33.3793 80.5579 33.5178 80.4876 33.6809C80.4173 33.8391 80.3821 34.0196 80.3821 34.2223C80.3821 34.42 80.4243 34.5981 80.5086 34.7563C80.5977 34.9145 80.7243 35.0405 80.8884 35.1344C81.0571 35.2234 81.254 35.2679 81.479 35.2679C81.8071 35.2679 82.093 35.1987 82.3368 35.0603C82.5806 34.9169 82.7704 34.7439 82.9063 34.5412C83.0422 34.3384 83.1149 34.1456 83.1243 33.9627L83.6586 34.8082C83.593 35.0108 83.4946 35.2259 83.3633 35.4533C83.2321 35.6808 83.0633 35.8933 82.8571 36.0911C82.6509 36.2889 82.4024 36.4519 82.1118 36.5805C81.8212 36.709 81.4837 36.7733 81.0993 36.7733C80.6071 36.7733 80.1665 36.6695 79.7774 36.4618C79.3884 36.2542 79.0813 35.9699 78.8563 35.609C78.6313 35.2482 78.5188 34.8378 78.5188 34.378C78.5188 33.9528 78.5938 33.5771 78.7438 33.2508C78.8938 32.9246 79.1165 32.6502 79.4118 32.4277C79.7071 32.2003 80.0727 32.0297 80.5086 31.9159C80.9493 31.7973 81.4532 31.738 82.0204 31.738H83.2719ZM88.4048 30.2474V36.625H86.5485V28.6011H88.2993L88.4048 30.2474ZM88.1306 32.3238H87.561C87.561 31.7652 87.6243 31.2511 87.7509 30.7814C87.8821 30.3117 88.0743 29.9039 88.3274 29.5578C88.5806 29.2068 88.8922 28.9348 89.2626 28.742C89.6376 28.5492 90.0712 28.4529 90.5634 28.4529C90.9055 28.4529 91.2193 28.5072 91.5057 28.616C91.7913 28.7198 92.0377 28.8854 92.2441 29.1128C92.4545 29.3353 92.6169 29.627 92.7289 29.9879C92.8417 30.3439 92.8977 30.7715 92.8977 31.2708V36.625H91.0417V31.471C91.0417 31.0953 90.9899 30.8012 90.8868 30.5886C90.7884 30.376 90.6454 30.2277 90.4579 30.1436C90.2704 30.0546 90.0453 30.0102 89.7829 30.0102C89.4922 30.0102 89.2415 30.0719 89.0306 30.1955C88.8243 30.3142 88.6532 30.4798 88.5173 30.6924C88.386 30.905 88.2876 31.1497 88.2219 31.4266C88.161 31.7034 88.1306 32.0025 88.1306 32.3238ZM92.7569 31.9605L91.9905 32.1088C91.9953 31.6045 92.0609 31.1324 92.1873 30.6924C92.3145 30.2474 92.4993 29.8593 92.7433 29.5281C92.9913 29.1919 93.2985 28.9299 93.6641 28.742C94.0345 28.5492 94.4609 28.4529 94.9441 28.4529C95.3185 28.4529 95.6561 28.5096 95.9561 28.6234C96.2609 28.7321 96.5209 28.9076 96.7369 29.1499C96.9521 29.3872 97.1169 29.6962 97.2289 30.0769C97.3465 30.4575 97.4049 30.9223 97.4049 31.471V36.625H95.5345V31.4636C95.5345 31.073 95.4833 30.7739 95.3801 30.5663C95.2817 30.3586 95.1385 30.2153 94.9505 30.1362C94.7633 30.0522 94.5433 30.0102 94.2897 30.0102C94.0321 30.0102 93.8073 30.0621 93.6153 30.1658C93.4273 30.2647 93.2681 30.4032 93.1369 30.5811C93.0105 30.7592 92.9145 30.9667 92.8489 31.2041C92.7873 31.4364 92.7569 31.6886 92.7569 31.9605Z" fill="black"/>
</svg>
