<svg width="117" height="52" viewBox="0 0 117 52" fill="none" xmlns="http://www.w3.org/2000/svg">
<rect width="117" height="52" rx="26" fill="#E2E0FF"/>
<g clip-path="url(#clip0_26_517)">
<path d="M33.6863 23.2413V16.5378H34.4967V19.4939H37.9477V16.5378H38.7581V23.2413H37.9477V20.2806H34.4967V23.2413H33.6863ZM41.4331 23.3809C41.0658 23.3809 40.7578 23.3127 40.5089 23.1761C40.263 23.0365 40.0764 22.8533 39.9489 22.6268C39.8244 22.4003 39.7622 22.152 39.7622 21.882C39.7622 21.6182 39.8108 21.3901 39.9079 21.1977C40.0081 21.0022 40.1477 20.8408 40.3268 20.7135C40.5058 20.5832 40.7198 20.4808 40.9687 20.4063C41.2024 20.3411 41.4635 20.2853 41.7518 20.2387C42.0432 20.1891 42.3376 20.144 42.6351 20.1037C42.9325 20.0634 43.2102 20.0246 43.4682 19.9873L43.1769 20.1596C43.186 19.7127 43.0979 19.3822 42.9128 19.168C42.7307 18.9539 42.415 18.8468 41.9658 18.8468C41.6683 18.8468 41.4073 18.9166 41.1827 19.0563C40.9611 19.1928 40.8048 19.4163 40.7138 19.7266L39.9443 19.4892C40.0627 19.0485 40.2918 18.7025 40.6318 18.4511C40.9717 18.1997 41.4195 18.074 41.9749 18.074C42.4211 18.074 42.8035 18.1563 43.1222 18.3208C43.4439 18.4821 43.6746 18.7273 43.8143 19.0563C43.884 19.2115 43.9281 19.3806 43.9463 19.5637C43.9645 19.7437 43.9736 19.933 43.9736 20.1316V23.2413H43.2543V22.0356L43.4227 22.1473C43.2375 22.5539 42.978 22.8611 42.6442 23.069C42.3133 23.2769 41.9096 23.3809 41.4331 23.3809ZM41.5561 22.6873C41.8474 22.6873 42.0993 22.6345 42.3118 22.529C42.5273 22.4204 42.7003 22.2792 42.8308 22.1054C42.9613 21.9285 43.0463 21.7361 43.0858 21.5282C43.1313 21.373 43.1556 21.2008 43.1587 21.0115C43.1647 20.819 43.1678 20.6716 43.1678 20.5692L43.45 20.6949C43.186 20.7322 42.9265 20.7678 42.6715 20.802C42.4165 20.8361 42.1752 20.8734 41.9476 20.9137C41.72 20.9509 41.5151 20.9959 41.333 21.0487C41.1994 21.0922 41.0735 21.148 40.9551 21.2163C40.8397 21.2846 40.7456 21.373 40.6728 21.4816C40.603 21.5871 40.5681 21.719 40.5681 21.8773C40.5681 22.0139 40.6014 22.1442 40.6682 22.2684C40.738 22.3925 40.8443 22.4934 40.9869 22.5709C41.1326 22.6485 41.3223 22.6873 41.5561 22.6873ZM45.1528 23.2413V18.2137H49.1821V23.2413H48.3717V19.0004H45.9632V23.2413H45.1528ZM54.4819 18.2137V23.2413H53.6988V19.5358L51.1219 23.2413H50.4526V18.2137H51.2357V21.868L53.8171 18.2137H54.4819ZM57.8285 23.3809C57.3307 23.3809 56.9072 23.2676 56.5582 23.0411C56.2122 22.8114 55.9481 22.4965 55.766 22.0961C55.5839 21.6958 55.4898 21.2396 55.4838 20.7275C55.4898 20.203 55.5854 19.7422 55.7706 19.3449C55.9587 18.9446 56.2273 18.6327 56.5764 18.4092C56.9255 18.1858 57.3459 18.074 57.8376 18.074C58.3566 18.074 58.8028 18.2044 59.1761 18.4651C59.5525 18.7258 59.8044 19.0827 59.9319 19.5358L59.1306 19.7825C59.0273 19.4908 58.8589 19.2642 58.6252 19.1028C58.3945 18.9415 58.129 18.8608 57.8285 18.8608C57.4916 18.8608 57.2138 18.9415 56.9953 19.1028C56.7768 19.2611 56.6143 19.4815 56.5081 19.7639C56.4019 20.0432 56.3472 20.3644 56.3442 20.7275C56.3503 21.2861 56.4763 21.7377 56.7221 22.0822C56.971 22.4236 57.3398 22.5942 57.8285 22.5942C58.1502 22.5942 58.4172 22.5197 58.6298 22.3708C58.8422 22.2187 59.0031 21.9999 59.1124 21.7144L59.9319 21.9332C59.7619 22.4018 59.4963 22.7602 59.1351 23.0085C58.7739 23.2568 58.3384 23.3809 57.8285 23.3809ZM62.2143 23.3809C61.8471 23.3809 61.539 23.3127 61.2901 23.1761C61.0442 23.0365 60.8576 22.8533 60.7301 22.6268C60.6057 22.4003 60.5434 22.152 60.5434 21.882C60.5434 21.6182 60.592 21.3901 60.6891 21.1977C60.7893 21.0022 60.929 20.8408 61.108 20.7135C61.2871 20.5832 61.5011 20.4808 61.7499 20.4063C61.9837 20.3411 62.2447 20.2853 62.533 20.2387C62.8244 20.1891 63.1189 20.144 63.4163 20.1037C63.7138 20.0634 63.9915 20.0246 64.2494 19.9873L63.9581 20.1596C63.9672 19.7127 63.8792 19.3822 63.694 19.168C63.5119 18.9539 63.1963 18.8468 62.747 18.8468C62.4496 18.8468 62.1885 18.9166 61.9639 19.0563C61.7424 19.1928 61.586 19.4163 61.495 19.7266L60.7255 19.4892C60.8439 19.0485 61.0731 18.7025 61.413 18.4511C61.753 18.1997 62.2007 18.074 62.7561 18.074C63.2023 18.074 63.5847 18.1563 63.9034 18.3208C64.2252 18.4821 64.4559 18.7273 64.5955 19.0563C64.6653 19.2115 64.7093 19.3806 64.7275 19.5637C64.7457 19.7437 64.7548 19.933 64.7548 20.1316V23.2413H64.0355V22.0356L64.2039 22.1473C64.0188 22.5539 63.7593 22.8611 63.4254 23.069C63.0946 23.2769 62.6909 23.3809 62.2143 23.3809ZM62.3372 22.6873C62.6286 22.6873 62.8806 22.6345 63.093 22.529C63.3086 22.4204 63.4816 22.2792 63.612 22.1054C63.7426 21.9285 63.8276 21.7361 63.867 21.5282C63.9125 21.373 63.9368 21.2008 63.9398 21.0115C63.9459 20.819 63.949 20.6716 63.949 20.5692L64.2312 20.6949C63.9672 20.7322 63.7077 20.7678 63.4527 20.802C63.1977 20.8361 62.9564 20.8734 62.7288 20.9137C62.5012 20.9509 62.2963 20.9959 62.1142 21.0487C61.9807 21.0922 61.8546 21.148 61.7363 21.2163C61.621 21.2846 61.5268 21.373 61.454 21.4816C61.3842 21.5871 61.3493 21.719 61.3493 21.8773C61.3493 22.0139 61.3827 22.1442 61.4494 22.2684C61.5193 22.3925 61.6255 22.4934 61.7681 22.5709C61.9138 22.6485 62.1036 22.6873 62.3372 22.6873ZM67.2407 23.2413V18.9678H65.5288V18.2137H69.7629V18.9678H68.0511V23.2413H67.2407ZM70.6248 23.2413L70.6202 18.2137H71.4352V20.0339H72.496C72.6387 20.0339 72.7844 20.037 72.9331 20.0432C73.0818 20.0494 73.2108 20.0634 73.3201 20.0851C73.575 20.1347 73.7981 20.2216 73.9893 20.3458C74.1806 20.4699 74.3293 20.639 74.4355 20.8532C74.5418 21.0642 74.5949 21.3265 74.5949 21.6399C74.5949 22.0744 74.4841 22.4189 74.2625 22.6734C74.044 22.9247 73.7571 23.0923 73.402 23.1761C73.2806 23.204 73.141 23.2227 72.9832 23.232C72.8284 23.2382 72.6811 23.2413 72.5415 23.2413H70.6248ZM71.4352 22.557H72.5552C72.6463 22.557 72.748 22.5539 72.8602 22.5477C72.9725 22.5414 73.0727 22.526 73.1607 22.5011C73.3155 22.4546 73.4537 22.363 73.575 22.2265C73.6995 22.0899 73.7617 21.8944 73.7617 21.6399C73.7617 21.3823 73.701 21.1837 73.5796 21.044C73.4612 20.9044 73.3049 20.8128 73.1106 20.7694C73.0226 20.7477 72.9301 20.7337 72.8329 20.7275C72.7358 20.7213 72.6432 20.7182 72.5552 20.7182H71.4352V22.557ZM77.4139 23.2413V18.2137H79.5082C79.6327 18.2137 79.7663 18.2215 79.9089 18.237C80.0546 18.2494 80.1866 18.2727 80.305 18.3068C80.569 18.3782 80.7861 18.5256 80.956 18.749C81.129 18.9694 81.2155 19.2487 81.2155 19.587C81.2155 19.7763 81.1868 19.9408 81.129 20.0804C81.0744 20.2201 80.9955 20.3411 80.8923 20.4435C80.8467 20.4901 80.7967 20.532 80.742 20.5692C80.6874 20.6065 80.6328 20.6359 80.5781 20.6577C80.6844 20.6763 80.7921 20.7182 80.9014 20.7834C81.0744 20.8796 81.2095 21.0146 81.3066 21.1884C81.4067 21.3622 81.4568 21.584 81.4568 21.854C81.4568 22.1954 81.3764 22.4778 81.2155 22.7013C81.0547 22.9217 80.8331 23.0737 80.5508 23.1575C80.4324 23.1917 80.302 23.2149 80.1593 23.2273C80.0167 23.2366 79.8785 23.2413 79.745 23.2413H77.4139ZM78.2334 22.5663H79.6994C79.7632 22.5663 79.8391 22.5601 79.9271 22.5477C80.0181 22.5353 80.0986 22.5197 80.1684 22.5011C80.3263 22.4546 80.4401 22.3677 80.5098 22.2404C80.5827 22.1132 80.6191 21.9751 80.6191 21.8261C80.6191 21.6275 80.5645 21.4661 80.4552 21.342C80.349 21.2178 80.2079 21.1403 80.0318 21.1092C79.968 21.0906 79.8983 21.0797 79.8224 21.0766C79.7495 21.0735 79.6843 21.072 79.6266 21.072H78.2334V22.5663ZM78.2334 20.3877H79.4536C79.5386 20.3877 79.6281 20.383 79.7222 20.3737C79.8163 20.3613 79.8983 20.3411 79.968 20.3132C80.1077 20.2604 80.2093 20.1735 80.2731 20.0525C80.3399 19.9284 80.3732 19.7934 80.3732 19.6475C80.3732 19.4861 80.3368 19.3449 80.264 19.2239C80.1942 19.0997 80.0864 19.0144 79.9407 18.9678C79.8437 18.9306 79.7344 18.9104 79.6129 18.9073C79.4946 18.9011 79.4187 18.898 79.3853 18.898H78.2334V20.3877Z" fill="black"/>
<mask id="mask0_26_517" style="mask-type:luminance" maskUnits="userSpaceOnUse" x="3" y="13" width="26" height="27">
<path d="M28.4959 26.9656C28.4959 19.7669 22.7885 13.9312 15.748 13.9312C8.70746 13.9312 3 19.7669 3 26.9656C3 34.1644 8.70746 40.0001 15.748 40.0001C22.7885 40.0001 28.4959 34.1644 28.4959 26.9656Z" fill="white"/>
</mask>
<g mask="url(#mask0_26_517)">
<path d="M19.6654 13.9312H11.8433C4.6993 13.9312 3 15.6686 3 22.9601V30.9581C3 38.2613 4.68656 40.0001 11.8305 40.0001H19.6527C26.7954 40.0001 28.4959 38.2757 28.4959 30.9711V22.9732C28.4959 15.6686 26.8094 13.9312 19.6654 13.9312ZM23.5829 32.5314H21.7229C21.0193 32.5314 20.8076 31.9487 19.5456 30.6583C18.4442 29.5725 17.9789 29.437 17.6997 29.437C17.3147 29.437 17.2089 29.5452 17.2089 30.0887V31.7988C17.2089 32.2615 17.0623 32.5327 15.8805 32.5327C14.7337 32.4539 13.6215 32.0976 12.6356 31.4932C11.6498 30.8888 10.8185 30.0536 10.2103 29.0564C8.96615 27.473 8.04808 25.6529 7.50713 23.7055C7.33341 23.0801 7.27725 22.2133 7.91307 22.2133H9.77172C10.2498 22.2133 10.4219 22.4309 10.6093 22.9328C11.5118 25.6492 13.0518 28.011 13.6764 28.011C13.9161 28.011 14.0206 27.9028 14.0206 27.2915V24.4943C13.9416 23.2182 13.2787 23.11 13.2787 22.6486C13.2872 22.5269 13.3418 22.4133 13.4308 22.3322C13.5198 22.2508 13.6363 22.2082 13.7555 22.2133H16.6773C17.0763 22.2133 17.2089 22.4166 17.2089 22.9054V26.6802C17.2089 27.0882 17.381 27.2237 17.5008 27.2237C17.7405 27.2237 17.9253 27.0882 18.3639 26.6398C19.3057 25.4653 20.0753 24.1568 20.6483 22.7555C20.7068 22.5872 20.8177 22.443 20.9638 22.3452C21.11 22.2473 21.2835 22.2009 21.4578 22.2133H23.3177C23.8748 22.2133 23.9934 22.4987 23.8748 22.9054C23.1985 24.4544 22.3617 25.9249 21.3787 27.2915C21.1786 27.6043 21.0983 27.7673 21.3787 28.1335C21.5636 28.419 22.215 28.9756 22.6535 29.5048C22.9966 29.8547 23.3085 30.2342 23.5857 30.6388C24.0607 31.3319 24.4107 32.5314 23.5829 32.5314Z" fill="black"/>
</g>
<path d="M41.4039 34.7297C41.4039 36.1631 40.0987 37.2012 38.2617 37.2012H33.9592V28.304H38.1166C39.9053 28.304 41.1622 29.2925 41.1622 30.6765C41.1622 31.6156 40.6789 32.2088 39.9537 32.5549C40.7271 32.8514 41.4039 33.6422 41.4039 34.7297ZM35.8446 29.9351V31.8628H38.0684C38.7451 31.8628 39.1802 31.4674 39.1802 30.9237C39.1802 30.38 38.6967 29.9351 38.0684 29.9351H35.8446ZM38.2617 35.57C38.9868 35.57 39.5186 35.1252 39.5186 34.4826C39.5186 33.84 39.0352 33.3951 38.2617 33.3951H35.8446V35.57H38.2617Z" fill="black"/>
<path d="M48.5113 37.1517L45.5143 33.6423H45.0309V37.1517H43.0972V28.304H45.0309V31.7145H45.5143L48.4148 28.304H50.6869L47.0612 32.5549L51.0251 37.1517H48.5113Z" fill="black"/>
<path d="M51.0254 32.7522C51.0254 30.083 52.9594 28.1553 55.6663 28.1553C58.3736 28.1553 60.3073 30.083 60.3073 32.7522C60.3073 35.4213 58.3736 37.3491 55.6663 37.3491C52.9594 37.3491 51.0254 35.4213 51.0254 32.7522ZM58.2771 32.7522C58.2771 31.0716 57.2133 29.9348 55.6663 29.9348C54.1193 29.9348 53.056 31.0716 53.056 32.7522C53.056 34.4328 54.1193 35.5697 55.6663 35.5697C57.2133 35.5697 58.2771 34.4328 58.2771 32.7522Z" fill="black"/>
<path d="M67.6998 28.304H69.6338V37.1517H67.6998V33.5929H63.8325V37.1517H61.8989V28.304H63.8325V31.8134H67.6998V28.304Z" fill="black"/>
<path d="M73.7958 37.1517V30.0833H70.7983V28.304H78.6783V30.0833H75.6809V37.1517H73.7958Z" fill="black"/>
<path d="M86.9902 32.2085V37.1514H85.5882L85.2015 35.7673C84.7665 36.5088 83.8481 37.3491 82.4461 37.3491C80.7057 37.3491 79.4487 36.1628 79.4487 34.5316C79.4487 32.9005 80.7057 31.7636 83.2679 31.7636H85.1531C85.0565 30.6267 84.4763 29.8359 83.413 29.8359C82.5428 29.8359 81.9625 30.3302 81.6724 30.8739L79.9323 30.5774C80.3675 29.0451 81.866 28.1553 83.5095 28.1553C85.6367 28.1553 86.9902 29.6381 86.9902 32.2085ZM85.105 33.2959H83.3164C81.866 33.2959 81.3824 33.7902 81.3824 34.4328C81.3824 35.1742 81.9625 35.6685 82.9294 35.6685C84.1862 35.6685 85.105 34.7294 85.105 33.2959Z" fill="black"/>
<path d="M94.4347 37.1517L91.4375 33.6423H90.9539V37.1517H89.0203V28.304H90.9539V31.7145H91.4375L94.3382 28.304H96.61L92.9844 32.5549L96.9479 37.1517H94.4347Z" fill="black"/>
<path d="M100.429 37.1517V30.0833H97.4324V28.304H105.312V30.0833H102.315V37.1517H100.429Z" fill="black"/>
<path d="M114.978 33.2959H108.017C108.211 34.68 109.177 35.5697 110.628 35.5697C111.643 35.5697 112.417 35.1248 112.851 34.4822L114.64 34.7787C114.011 36.4594 112.319 37.3491 110.483 37.3491C107.872 37.3491 105.987 35.4213 105.987 32.7522C105.987 30.083 107.872 28.1553 110.483 28.1553C113.093 28.1553 114.978 30.083 114.978 32.6534C115.027 32.9005 114.978 33.0982 114.978 33.2959ZM108.162 31.7636H112.948C112.61 30.6761 111.739 29.8853 110.531 29.8853C109.371 29.8359 108.452 30.6267 108.162 31.7636Z" fill="black"/>
</g>
<defs>
<clipPath id="clip0_26_517">
<rect width="112" height="27" fill="white" transform="translate(3 13)"/>
</clipPath>
</defs>
</svg>
