<svg width="117" height="52" viewBox="0 0 117 52" fill="none" xmlns="http://www.w3.org/2000/svg">
<rect width="117" height="52" rx="26" fill="#E2E0FF"/>
<g clip-path="url(#clip0_26_507)">
<path d="M11.0047 38.2581L12.5976 32.4167C11.548 30.621 10.9966 28.5788 11 26.5C11 20.006 16.2747 14.7419 22.7818 14.7419C29.289 14.7419 34.5636 20.006 34.5636 26.5C34.5636 32.9939 29.289 38.2581 22.7818 38.2581C20.6998 38.2614 18.6543 37.7115 16.8556 36.6648L11.0047 38.2581ZM18.5298 20.9831C18.3776 20.9925 18.2289 21.0325 18.0927 21.1007C17.9649 21.1729 17.8482 21.2632 17.7463 21.3688C17.6049 21.5016 17.5248 21.6169 17.4388 21.7286C17.0033 22.2941 16.7691 22.9884 16.7731 23.7016C16.7755 24.2777 16.9263 24.8385 17.1619 25.363C17.6438 26.4235 18.4367 27.5465 19.4841 28.587C19.7363 28.8375 19.9825 29.0891 20.2476 29.3231C21.5475 30.4654 23.0967 31.2891 24.7718 31.7288L25.4422 31.8311C25.6602 31.8429 25.8781 31.8264 26.0972 31.8158C26.4404 31.7981 26.7754 31.7054 27.0787 31.5442C27.2329 31.4649 27.3835 31.3786 27.5299 31.2855C27.5299 31.2855 27.5806 31.2526 27.6772 31.1797C27.8362 31.0621 27.9341 30.9786 28.066 30.8411C28.1638 30.74 28.2486 30.6212 28.3134 30.486C28.4053 30.2943 28.4972 29.9287 28.5349 29.6241C28.5632 29.3913 28.5549 29.2643 28.5514 29.1856C28.5467 29.0597 28.4418 28.9292 28.3276 28.8739L27.6419 28.5671C27.6419 28.5671 26.6168 28.1214 25.9912 27.8369C25.9252 27.8082 25.8545 27.7918 25.7827 27.7887C25.7021 27.7804 25.6206 27.7895 25.5437 27.8153C25.4669 27.8409 25.3966 27.8828 25.3373 27.938V27.9356C25.3314 27.9356 25.2525 28.0027 24.4006 29.0327C24.3518 29.0983 24.2844 29.1478 24.2072 29.175C24.13 29.2023 24.0464 29.2059 23.9671 29.1856C23.8903 29.1651 23.8151 29.1391 23.7421 29.1079C23.596 29.0468 23.5453 29.0233 23.4452 28.9797L23.4392 28.9774C22.7652 28.6837 22.1411 28.2871 21.5895 27.8016C21.441 27.6722 21.3032 27.5311 21.1619 27.3948C20.6983 26.9518 20.2944 26.4506 19.9601 25.9038L19.8906 25.7922C19.8406 25.7171 19.8002 25.6361 19.7704 25.5511C19.7256 25.3783 19.8423 25.2395 19.8423 25.2395C19.8423 25.2395 20.1286 24.9268 20.2617 24.7575C20.3726 24.6167 20.476 24.4703 20.5715 24.3188C20.7106 24.0954 20.7542 23.8662 20.6812 23.6886C20.3513 22.8844 20.0096 22.0837 19.6585 21.2888C19.589 21.1313 19.3828 21.0184 19.1954 20.996C19.1318 20.989 19.0682 20.9819 19.0046 20.9772C18.8464 20.9694 18.6878 20.971 18.5298 20.9819V20.9831Z" fill="black"/>
<path d="M38.6655 22.5805V16.3096H39.4423V19.0749H42.7499V16.3096H43.5266V22.5805H42.7499V19.8109H39.4423V22.5805H38.6655ZM46.0904 22.7112C45.7384 22.7112 45.4431 22.6473 45.2046 22.5196C44.969 22.3889 44.7901 22.2176 44.6679 22.0057C44.5486 21.7938 44.489 21.5615 44.489 21.3089C44.489 21.0622 44.5355 20.8488 44.6286 20.6688C44.7246 20.4859 44.8584 20.3349 45.0301 20.2159C45.2016 20.0939 45.4067 19.9981 45.6453 19.9284C45.8693 19.8675 46.1195 19.8152 46.3959 19.7717C46.6752 19.7252 46.9573 19.6831 47.2424 19.6454C47.5275 19.6076 47.7936 19.5713 48.041 19.5365L47.7617 19.6976C47.7704 19.2796 47.686 18.9704 47.5086 18.7701C47.3341 18.5697 47.0315 18.4696 46.601 18.4696C46.3159 18.4696 46.0656 18.5349 45.8504 18.6655C45.638 18.7933 45.4882 19.0023 45.401 19.2926L44.6635 19.0705C44.777 18.6583 44.9966 18.3346 45.3224 18.0994C45.6482 17.8642 46.0773 17.7467 46.6097 17.7467C47.0373 17.7467 47.4039 17.8236 47.7093 17.9775C48.0177 18.1284 48.2387 18.3578 48.3726 18.6655C48.4395 18.8107 48.4817 18.9689 48.4992 19.1402C48.5166 19.3086 48.5253 19.4857 48.5253 19.6715V22.5805H47.8359V21.4526L47.9973 21.5572C47.8198 21.9375 47.5711 22.2249 47.2512 22.4194C46.934 22.6139 46.5471 22.7112 46.0904 22.7112ZM46.2082 22.0623C46.4875 22.0623 46.7289 22.0129 46.9326 21.9142C47.1391 21.8126 47.3049 21.6805 47.4301 21.518C47.5551 21.3525 47.6366 21.1725 47.6744 20.978C47.7181 20.8328 47.7413 20.6717 47.7442 20.4946C47.75 20.3146 47.753 20.1767 47.753 20.0809L48.0235 20.1984C47.7704 20.2333 47.5217 20.2667 47.2773 20.2986C47.033 20.3305 46.8017 20.3654 46.5835 20.4031C46.3653 20.438 46.169 20.4801 45.9944 20.5294C45.8664 20.5701 45.7457 20.6223 45.6322 20.6862C45.5217 20.7501 45.4315 20.8328 45.3617 20.9344C45.2948 21.0331 45.2613 21.1565 45.2613 21.3046C45.2613 21.4323 45.2933 21.5543 45.3573 21.6704C45.4242 21.7865 45.526 21.8809 45.6628 21.9534C45.8024 22.026 45.9842 22.0623 46.2082 22.0623ZM49.6555 22.5805V17.8773H53.5173V22.5805H52.7406V18.6133H50.4322V22.5805H49.6555ZM58.5969 17.8773V22.5805H57.8463V19.1141L55.3765 22.5805H54.7351V17.8773H55.4856V21.2959L57.9598 17.8773H58.5969ZM61.8044 22.7112C61.3273 22.7112 60.9215 22.6052 60.587 22.3933C60.2553 22.1784 60.0022 21.8838 59.8277 21.5092C59.6531 21.1347 59.5629 20.708 59.5571 20.2289C59.5629 19.7383 59.6545 19.3072 59.832 18.9355C60.0123 18.561 60.2698 18.2692 60.6044 18.0602C60.9389 17.8512 61.3419 17.7467 61.8131 17.7467C62.3106 17.7467 62.7382 17.8686 63.096 18.1125C63.4567 18.3563 63.6982 18.6902 63.8204 19.1141L63.0524 19.3449C62.9534 19.072 62.792 18.8601 62.568 18.7091C62.3469 18.5581 62.0924 18.4826 61.8044 18.4826C61.4815 18.4826 61.2153 18.5581 61.0059 18.7091C60.7964 18.8572 60.6407 19.0633 60.539 19.3275C60.4371 19.5888 60.3847 19.8892 60.3819 20.2289C60.3876 20.7515 60.5084 21.1739 60.744 21.4962C60.9826 21.8156 61.336 21.9752 61.8044 21.9752C62.1127 21.9752 62.3687 21.9055 62.5724 21.7662C62.776 21.6239 62.9302 21.4193 63.035 21.1522L63.8204 21.3568C63.6575 21.7952 63.4029 22.1305 63.0568 22.3628C62.7106 22.5951 62.2931 22.7112 61.8044 22.7112ZM66.008 22.7112C65.656 22.7112 65.3608 22.6473 65.1222 22.5196C64.8865 22.3889 64.7076 22.2176 64.5854 22.0057C64.4662 21.7938 64.4065 21.5615 64.4065 21.3089C64.4065 21.0622 64.4531 20.8488 64.5462 20.6688C64.6422 20.4859 64.776 20.3349 64.9476 20.2159C65.1193 20.0939 65.3244 19.9981 65.5629 19.9284C65.7869 19.8675 66.0371 19.8152 66.3134 19.7717C66.5927 19.7252 66.875 19.6831 67.16 19.6454C67.4451 19.6076 67.7113 19.5713 67.9585 19.5365L67.6793 19.6976C67.688 19.2796 67.6037 18.9704 67.4262 18.7701C67.2516 18.5697 66.9491 18.4696 66.5185 18.4696C66.2335 18.4696 65.9833 18.5349 65.768 18.6655C65.5557 18.7933 65.4058 19.0023 65.3185 19.2926L64.5811 19.0705C64.6945 18.6583 64.9142 18.3346 65.24 18.0994C65.5659 17.8642 65.9949 17.7467 66.5273 17.7467C66.9549 17.7467 67.3214 17.8236 67.6269 17.9775C67.9353 18.1284 68.1564 18.3578 68.2902 18.6655C68.3571 18.8107 68.3993 18.9689 68.4167 19.1402C68.4342 19.3086 68.4429 19.4857 68.4429 19.6715V22.5805H67.7534V21.4526L67.9149 21.5572C67.7375 21.9375 67.4887 22.2249 67.1687 22.4194C66.8517 22.6139 66.4648 22.7112 66.008 22.7112ZM66.1258 22.0623C66.4051 22.0623 66.6466 22.0129 66.8502 21.9142C67.0567 21.8126 67.2226 21.6805 67.3476 21.518C67.4728 21.3525 67.5542 21.1725 67.592 20.978C67.6356 20.8328 67.6589 20.6717 67.6618 20.4946C67.6676 20.3146 67.6705 20.1767 67.6705 20.0809L67.9411 20.1984C67.688 20.2333 67.4393 20.2667 67.1949 20.2986C66.9505 20.3305 66.7193 20.3654 66.5011 20.4031C66.2829 20.438 66.0865 20.4801 65.912 20.5294C65.784 20.5701 65.6633 20.6223 65.5498 20.6862C65.4393 20.7501 65.3491 20.8328 65.2793 20.9344C65.2124 21.0331 65.1789 21.1565 65.1789 21.3046C65.1789 21.4323 65.2109 21.5543 65.2749 21.6704C65.3418 21.7865 65.4437 21.8809 65.5804 21.9534C65.72 22.026 65.9019 22.0623 66.1258 22.0623ZM70.8254 22.5805V18.5828H69.1847V17.8773H73.2429V18.5828H71.6022V22.5805H70.8254ZM74.0689 22.5805L74.0646 17.8773H74.8457V19.5801H75.8624C75.9991 19.5801 76.1388 19.583 76.2813 19.5888C76.4238 19.5946 76.5475 19.6076 76.6522 19.628C76.8966 19.6744 77.1104 19.7557 77.2937 19.8718C77.4769 19.988 77.6194 20.1462 77.7213 20.3465C77.8231 20.5439 77.874 20.7892 77.874 21.0825C77.874 21.4889 77.7678 21.8112 77.5555 22.0492C77.346 22.2844 77.0711 22.4412 76.7307 22.5196C76.6144 22.5457 76.4805 22.5631 76.3293 22.5718C76.1809 22.5777 76.0398 22.5805 75.906 22.5805H74.0689ZM74.8457 21.9404H75.9191C76.0064 21.9404 76.1039 21.9375 76.2115 21.9317C76.3191 21.9258 76.4151 21.9114 76.4995 21.8881C76.6478 21.8446 76.7802 21.759 76.8966 21.6312C77.0159 21.5034 77.0755 21.3205 77.0755 21.0825C77.0755 20.8415 77.0173 20.6557 76.9009 20.5251C76.7875 20.3944 76.6376 20.3088 76.4515 20.2681C76.3671 20.2478 76.2784 20.2347 76.1853 20.2289C76.0922 20.2231 76.0035 20.2202 75.9191 20.2202H74.8457V21.9404ZM80.5759 22.5805V17.8773H82.5832C82.7025 17.8773 82.8305 17.8846 82.9672 17.8991C83.1068 17.9107 83.2334 17.9325 83.3468 17.9644C83.5999 18.0312 83.808 18.1691 83.9708 18.3781C84.1366 18.5843 84.2195 18.8455 84.2195 19.162C84.2195 19.3391 84.192 19.493 84.1366 19.6236C84.0843 19.7542 84.0087 19.8675 83.9097 19.9633C83.8661 20.0068 83.8181 20.046 83.7657 20.0809C83.7133 20.1157 83.661 20.1433 83.6086 20.1636C83.7105 20.181 83.8137 20.2202 83.9184 20.2812C84.0843 20.3712 84.2138 20.4975 84.3068 20.6601C84.4028 20.8226 84.4508 21.0302 84.4508 21.2828C84.4508 21.6022 84.3737 21.8663 84.2195 22.0754C84.0654 22.2815 83.853 22.4238 83.5824 22.5022C83.469 22.5341 83.3439 22.5559 83.2072 22.5675C83.0705 22.5762 82.9381 22.5805 82.8101 22.5805H80.5759ZM81.3614 21.9491H82.7664C82.8275 21.9491 82.9003 21.9433 82.9846 21.9317C83.0719 21.9201 83.149 21.9055 83.2159 21.8881C83.3672 21.8446 83.4763 21.7633 83.5432 21.6442C83.613 21.5252 83.6479 21.396 83.6479 21.2567C83.6479 21.0709 83.5955 20.9199 83.4908 20.8038C83.389 20.6876 83.2538 20.6151 83.085 20.586C83.0239 20.5686 82.9571 20.5584 82.8843 20.5555C82.8144 20.5526 82.752 20.5512 82.6966 20.5512H81.3614V21.9491ZM81.3614 19.911H82.5308C82.6123 19.911 82.6981 19.9067 82.7883 19.898C82.8785 19.8863 82.957 19.8675 83.0239 19.8413C83.1578 19.792 83.2552 19.7107 83.3163 19.5975C83.3803 19.4813 83.4123 19.3551 83.4123 19.2186C83.4123 19.0676 83.3774 18.9355 83.3075 18.8223C83.2407 18.7062 83.1374 18.6263 82.9977 18.5828C82.9047 18.548 82.8 18.5291 82.6835 18.5262C82.5701 18.5204 82.4974 18.5175 82.4654 18.5175H81.3614V19.911Z" fill="black"/>
<path d="M47.8922 34.1255H47.8593L46.0583 26.9355H43.8962L42.0731 34.039H42.0402L40.3713 26.9462H38.0544L40.8435 37.3782H43.1825L44.9393 30.286H44.9722L46.7511 37.3777H49.0458L51.8791 26.9462H49.6047L47.8922 34.1255ZM58.9385 30.4708C58.73 30.1989 58.4448 29.9923 58.0933 29.8399C57.7305 29.6875 57.2696 29.6115 56.7203 29.6115C56.3258 29.6115 55.9301 29.7092 55.5128 29.9158C55.0956 30.1118 54.7657 30.4378 54.4913 30.8734H54.4477V26.9462H52.3502V37.3782H54.4477V33.4187C54.4477 32.646 54.5792 32.1021 54.832 31.7649C55.0842 31.4277 55.5015 31.2647 56.0729 31.2647C56.578 31.2647 56.9182 31.4171 57.116 31.7213C57.3133 32.0263 57.4125 32.4941 57.4125 33.1138V37.3782H59.5094V32.7331C59.5115 32.306 59.471 31.8799 59.3886 31.4607C59.29 31.0687 59.1471 30.7426 58.9385 30.4708ZM67.558 35.6921V31.7649C67.558 31.3082 67.4594 30.9387 67.2508 30.6662C67.0416 30.3837 66.7786 30.1771 66.46 30.0135C66.1197 29.8551 65.7569 29.7487 65.3841 29.6981C64.9984 29.6461 64.6095 29.6207 64.2202 29.6221C63.803 29.6221 63.3744 29.6657 62.9572 29.7416C62.5399 29.8287 62.1669 29.9594 61.8262 30.1553C61.4963 30.3484 61.215 30.6123 61.0032 30.9275C60.7831 31.2541 60.6624 31.6566 60.6295 32.1351H62.7271C62.7707 31.7213 62.9022 31.4389 63.1443 31.2541C63.3744 31.0799 63.7043 30.9928 64.1216 30.9928C64.3081 30.9928 64.4839 31.0034 64.6482 31.0252C64.8132 31.0469 64.9561 31.1016 65.0768 31.1664C65.1976 31.2429 65.2962 31.3406 65.3733 31.4713C65.4498 31.6019 65.4827 31.7761 65.4827 32.0045C65.494 32.2222 65.4283 32.3852 65.2962 32.4941C65.1296 32.6156 64.9386 32.7008 64.7361 32.7442C64.5059 32.7984 64.231 32.8419 63.9231 32.8749C63.6165 32.9073 63.3086 32.9397 62.9907 32.9943C62.6721 33.0379 62.3643 33.1138 62.057 33.1903C61.7639 33.2689 61.4858 33.3937 61.2333 33.5599C60.9918 33.7229 60.7946 33.9519 60.6404 34.2237C60.4867 34.5063 60.4102 34.8546 60.4102 35.279C60.4102 35.6703 60.4759 36.0075 60.6075 36.29C60.739 36.5732 60.926 36.802 61.1568 36.9863C61.3875 37.1717 61.6726 37.3129 61.9804 37.4C62.3131 37.4894 62.6566 37.5331 63.0014 37.5301C63.4737 37.5301 63.9345 37.4653 64.3846 37.3241C64.8353 37.1828 65.2304 36.9533 65.5598 36.6061C65.5706 36.7361 65.5819 36.8562 65.6147 36.9756C65.6369 37.0951 65.6698 37.2152 65.7134 37.3346H67.833C67.7338 37.1822 67.668 36.9427 67.6238 36.6385C67.5781 36.325 67.5561 36.0088 67.558 35.6921ZM65.4719 34.4521C65.4719 34.5716 65.4611 34.724 65.4391 34.9194C65.4151 35.1232 65.3479 35.3197 65.2418 35.4961C65.1318 35.6809 64.9668 35.8445 64.7361 35.9858C64.5059 36.127 64.1874 36.1924 63.7809 36.1924C63.6165 36.1924 63.4515 36.1817 63.2979 36.1488C63.1508 36.1229 63.0095 36.0712 62.8807 35.9964C62.7613 35.9198 62.6631 35.8152 62.5949 35.6921C62.5253 35.5459 62.4915 35.3857 62.4963 35.2242C62.4963 35.0282 62.5292 34.8653 62.5949 34.7458C62.6607 34.6151 62.76 34.5174 62.8699 34.4303C62.9868 34.3396 63.1209 34.273 63.2644 34.2343C63.4187 34.1908 63.5723 34.1472 63.7259 34.1148C63.8908 34.0819 64.0553 34.0602 64.231 34.0384C64.396 34.0166 64.5603 33.9948 64.7146 33.9624C64.8682 33.9301 65.0105 33.8977 65.1426 33.8536C65.2637 33.8143 65.3758 33.7514 65.4719 33.6688V34.4521ZM71.4673 27.5552H69.3698V29.8181H68.1074V31.2105H69.3698V35.6598C69.3698 36.0399 69.4355 36.3448 69.5569 36.5837C69.6816 36.807 69.8631 36.9946 70.0835 37.1281C70.3035 37.2582 70.5558 37.3341 70.8522 37.3782C71.138 37.4217 71.4452 37.443 71.7745 37.443C71.9832 37.443 72.1918 37.443 72.4118 37.4324C72.6311 37.4217 72.829 37.4 73.0047 37.3782V35.768C72.9031 35.7886 72.8003 35.8031 72.6969 35.8116C72.5875 35.8227 72.4775 35.8227 72.3567 35.8227C72.0053 35.8227 71.7638 35.768 71.6538 35.6485C71.533 35.5291 71.4781 35.3001 71.4781 34.9524V31.2105H73.0155V29.8181H71.4781V27.5546L71.4673 27.5552ZM80.1197 34.0601C79.9821 33.8246 79.7951 33.6208 79.571 33.4622C79.3354 33.2956 79.0765 33.1636 78.8023 33.0703C78.5096 32.9741 78.2129 32.8906 77.9129 32.8202C77.6163 32.7554 77.3306 32.6895 77.0455 32.6353C76.7883 32.5883 76.535 32.5228 76.2876 32.4394C76.0682 32.3629 75.8924 32.2763 75.7495 32.1569C75.6816 32.1014 75.6274 32.0314 75.5913 31.9521C75.5552 31.8728 75.5379 31.7865 75.541 31.6996C75.541 31.5478 75.5739 31.4171 75.6617 31.33C75.7393 31.2402 75.8372 31.1695 75.9474 31.1234C76.0568 31.0799 76.189 31.0469 76.3204 31.0252C76.4633 31.0145 76.584 31.0034 76.7047 31.0034C77.0784 31.0034 77.4077 31.0687 77.6821 31.2105C77.9565 31.3518 78.1107 31.6237 78.1435 32.015H80.1311C80.0868 31.5478 79.9661 31.167 79.7682 30.8515C79.5768 30.551 79.3177 30.2978 79.0109 30.1118C78.69 29.9203 78.3367 29.7874 77.9678 29.7199C77.5737 29.6414 77.1726 29.6013 76.7705 29.6004C76.3533 29.6004 75.9582 29.6333 75.563 29.7092C75.1673 29.7857 74.8165 29.9052 74.4979 30.09C74.1837 30.2668 73.9223 30.5219 73.7399 30.8297C73.5534 31.1452 73.4548 31.5366 73.4548 32.0263C73.4548 32.3523 73.5206 32.6353 73.6635 32.8637C73.795 33.0921 73.982 33.2774 74.2121 33.4292C74.4429 33.5823 74.6957 33.7011 74.9922 33.7995C75.2774 33.8971 75.5739 33.9737 75.8817 34.0384C76.6283 34.1914 77.2099 34.3538 77.6271 34.5063C78.0443 34.6587 78.253 34.8982 78.253 35.2024C78.253 35.3872 78.2093 35.5397 78.1214 35.6592C78.0336 35.7792 77.9236 35.8769 77.7921 35.9534C77.6551 36.0298 77.5069 36.0847 77.3527 36.1164C77.2012 36.1493 77.0469 36.1674 76.8919 36.1706C76.6827 36.1706 76.4854 36.1488 76.2989 36.094C76.116 36.0543 75.9438 35.9767 75.7938 35.8663C75.6458 35.7627 75.5221 35.629 75.431 35.4743C75.335 35.2969 75.2861 35.0986 75.2887 34.8976H73.3012C73.3228 35.4096 73.4327 35.8227 73.6521 36.16C73.8555 36.49 74.1338 36.7691 74.465 36.9756C74.7943 37.1822 75.1673 37.3235 75.5959 37.4112C76.0222 37.4986 76.4565 37.5422 76.8919 37.5412C77.3198 37.5412 77.7478 37.4977 78.1651 37.4217C78.5823 37.3346 78.9559 37.1935 79.2745 36.9863C79.6039 36.7803 79.8561 36.5078 80.0647 36.1817C80.2626 35.8445 80.3612 35.4308 80.3612 34.9306C80.3176 34.5934 80.2518 34.2997 80.1197 34.0601ZM84.2705 26.9462L80.2955 37.3782H82.6237L83.4467 35.0612H87.3782L88.1684 37.3782H90.5731L86.6423 26.9462H84.2705ZM84.0511 33.3421L85.4235 29.5133H85.4564L86.7852 33.3421H84.0511ZM97.8202 30.841C97.5307 30.471 97.1637 30.1667 96.7442 29.9487C96.3162 29.7199 95.7998 29.6115 95.1961 29.6115C94.7239 29.6115 94.2953 29.6981 93.9002 29.8834C93.5051 30.0682 93.1865 30.3619 92.9228 30.775H92.89V29.807H90.9024V40.0001H93V36.4207H93.0329C93.2752 36.7823 93.613 37.072 94.0101 37.2588C94.4052 37.4435 94.8446 37.5412 95.3168 37.5412C95.8769 37.5412 96.3707 37.4324 96.7879 37.2152C97.1961 37.0084 97.5525 36.7149 97.8315 36.3559C98.1167 35.9969 98.3145 35.5832 98.4576 35.1153C98.5886 34.6475 98.6662 34.1584 98.6662 33.6576C98.6688 33.1359 98.599 32.6162 98.4576 32.1134C98.3189 31.6568 98.1038 31.227 97.8202 30.841ZM96.4699 34.5063C96.4196 34.7777 96.3149 35.0365 96.162 35.2677C96.0198 35.4856 95.8327 35.6703 95.602 35.801C95.3719 35.9422 95.0861 36.0069 94.746 36.0069C94.4167 36.0069 94.1309 35.9422 93.8894 35.801C93.6566 35.6734 93.4602 35.49 93.3186 35.2677C93.1757 35.05 93.0765 34.7893 93.0107 34.5063C92.9449 34.2134 92.9118 33.9145 92.9121 33.6147C92.9121 33.2992 92.945 33.005 93 32.7113C93.0549 32.4176 93.1644 32.1569 93.3072 31.9392C93.45 31.7108 93.6365 31.5366 93.8673 31.3953C94.098 31.2541 94.3831 31.1776 94.7239 31.1776C95.0532 31.1776 95.339 31.2541 95.5691 31.3953C95.7998 31.5366 95.9863 31.7213 96.1406 31.9497C96.2828 32.1787 96.3928 32.4394 96.4585 32.7331C96.5249 33.0273 96.5577 33.3203 96.5577 33.6253C96.5577 33.9189 96.5356 34.2126 96.4699 34.5063ZM106.791 32.1345C106.648 31.6455 106.44 31.2105 106.154 30.8404C105.865 30.4707 105.498 30.1667 105.079 29.9487C104.65 29.7199 104.134 29.6115 103.53 29.6115C103.058 29.6115 102.629 29.6981 102.235 29.8834C101.839 30.0682 101.521 30.3619 101.257 30.775H101.224V29.807H99.237V40.0001H101.334V36.4207H101.367C101.609 36.7823 101.947 37.072 102.344 37.2588C102.752 37.4478 103.199 37.5443 103.65 37.5412C104.211 37.5412 104.694 37.4324 105.123 37.2152C105.53 37.0086 105.886 36.715 106.166 36.3559C106.456 35.9876 106.668 35.5658 106.791 35.1153C106.933 34.6421 107.003 34.1509 107 33.6576C107 33.1356 106.923 32.6242 106.791 32.1345ZM104.815 34.5063C104.763 34.7756 104.663 35.0335 104.519 35.2677C104.376 35.4856 104.189 35.6703 103.958 35.801C103.728 35.9422 103.442 36.0069 103.102 36.0069C102.772 36.0069 102.487 35.9422 102.245 35.801C102.012 35.6733 101.816 35.4898 101.675 35.2677C101.531 35.05 101.433 34.7893 101.367 34.5063C101.301 34.2135 101.268 33.9145 101.268 33.6147C101.268 33.2992 101.301 33.005 101.356 32.7113C101.407 32.4366 101.51 32.1742 101.664 31.9392C101.806 31.7108 101.993 31.5366 102.223 31.3953C102.454 31.2541 102.739 31.1776 103.091 31.1776C103.421 31.1776 103.705 31.2541 103.937 31.3953C104.167 31.5366 104.354 31.7213 104.507 31.9497C104.65 32.1787 104.76 32.4394 104.826 32.7331C104.891 33.0273 104.925 33.3203 104.925 33.6253C104.903 33.9189 104.87 34.2126 104.815 34.5063Z" fill="black"/>
</g>
<defs>
<clipPath id="clip0_26_507">
<rect width="96" height="27" fill="white" transform="translate(11 13)"/>
</clipPath>
</defs>
</svg>
